<?xml version="1.0" encoding="UTF-8"?>
<svg width="24px" height="24px" stroke-width="1.5" viewBox="0 0 24 24" fill="none" xmlns="http://www.w3.org/2000/svg" color="#FFFFFF">
  <path d="M12 8.5V14.5" stroke="#FFFFFF" stroke-width="1.5" stroke-linecap="round" stroke-linejoin="round"></path>
  <path d="M12 22C17.5228 22 22 17.5228 22 12C22 6.47715 17.5228 2 12 2C6.47715 2 2 6.47715 2 12C2 17.5228 6.47715 22 12 22Z" stroke="#FFFFFF" stroke-width="1.5"></path>
  <path d="M7.5 9C7.5 7.89543 8.39543 7 9.5 7H14.5C15.6046 7 16.5 7.89543 16.5 9V12C16.5 13.1046 15.6046 14 14.5 14H9.5C8.39543 14 7.5 13.1046 7.5 12V9Z" stroke="#FFFFFF" stroke-width="1.5"></path>
  <path d="M7.5 18L8.5 17M16.5 18L15.5 17" stroke="#FFFFFF" stroke-width="1.5" stroke-linecap="round" stroke-linejoin="round"></path>
</svg>
